PathFileType	4	(X/Y/Z)	pose_F01_0-94.trc
DataRate	CameraRate	NumFrames	NumMarkers	Units	OrigDataRate	OrigDataStartFrame	OrigNumFrames
30	30	6	21	m	30	0	94
Frame#	Time	CHip			RHip			RKnee			RAnkle			RBigToe			RSmallToe			RHeel			LHip			LKnee			LAnkle			LBigToe			LSmallToe			LHeel			Neck			Nose			RShoulder			RElbow			RWrist			LShoulder			LElbow			LWrist			
		X1	Y1	Z1	X2	Y2	Z2	X3	Y3	Z3	X4	Y4	Z4	X5	Y5	Z5	X6	Y6	Z6	X7	Y7	Z7	X8	Y8	Z8	X9	Y9	Z9	X10	Y10	Z10	X11	Y11	Z11	X12	Y12	Z12	X13	Y13	Z13	X14	Y14	Z14	X15	Y15	Z15	X16	Y16	Z16	X17	Y17	Z17	X18	Y18	Z18	X19	Y19	Z19	X20	Y20	Z20	X21	Y21	Z21	
0	0.0	-0.28922412543766557	1.8599609674904676	-0.49675798886605016	-0.2952132910619962	1.8430278839904293	-0.4419983497723804	-0.44879227861950527	1.7007258584204505	-0.4454607652040817	-0.33144658836691526	1.500778012359604	-0.44659188409674855	-0.2914168544687033	1.5174737346037332	-0.4915639450019897	-0.2859195216587988	1.5154445355671582	-0.4338339900266121	-0.44349050524285255	1.5785939666603745	-0.7210882558831045	-0.2750829411006144	1.879677932261934	-0.5538000575785856	-0.291160683312282	1.7115701188276047	-0.5286984748422553	-0.30028540741985127	1.5774633938306284	-0.4552195648028982	-0.26828498080724966	1.540340660773363	-0.4635054106477799	-0.2698401471217914	1.5539515545448284	-0.4958433343127238	-0.31847357521801883	1.5705165070534888	-0.45355361145792406	-0.3081536895079288	1.979148612050741	-0.5647877620429888	-0.31289098720451475	2.0728124013334837	-0.6729405430912828	-0.32568070085320044	1.9761754032508048	-0.4851027357494758	-0.2642163157658732	1.9055138053965284	-0.46346409202128486	-0.3134339177608089	1.868103169888356	-0.4282567531415271	-0.2887676036269534	1.9829503426945148	-0.6446169620331873	-0.3227335396737517	1.9013354284248873	-0.5588969449562164	-0.2665852320445982	1.936279172691943	-0.6521976767566223
1	0.03333333333333333	-0.2903146702884997	1.8567810979205626	-0.49958645507661725	-0.29645739429010404	1.8411991928579645	-0.44502370432684685	-0.43786446156996894	1.6998705899530266	-0.44790112347172717	-0.3311606392227866	1.5055528707707366	-0.4473492587875015	-0.29151843893630824	1.5188103808370426	-0.4869592022887507	-0.28766765114781	1.5173605068883003	-0.43236868758288716	-0.4350024707683592	1.5762122761347637	-0.6992812035376611	-0.27603338955361273	1.874978076218402	-0.5565136585523042	-0.29228739754979766	1.7099281839806353	-0.5316346457624634	-0.30028540741985127	1.5774633938306284	-0.4552195648028982	-0.26828498080724966	1.540340660773363	-0.4635054106477799	-0.2698401471217914	1.5539515545448284	-0.4958433343127238	-0.31847357521801883	1.5705165070534888	-0.45355361145792406	-0.3081165694518837	1.9791213906173162	-0.564751763325845	-0.3098381145167232	2.069789164866405	-0.6627055622091635	-0.32567271171637113	1.9761473585992284	-0.48515118305258786	-0.2693082446502377	1.9043694978120527	-0.4622503045518884	-0.3134934175067344	1.8645702255207952	-0.42800735979524984	-0.288699633270739	1.9829061803388857	-0.6445130724846752	-0.31970122988929245	1.9006716973880435	-0.5662674550011889	-0.2670956098399153	1.9270919072435289	-0.6510180272672352
2	0.06666666666666667	-0.2914052151393339	1.8536012283506575	-0.5024149212871843	-0.2977014975182119	1.8393705017254998	-0.4480490588813133	-0.4269366445204326	1.6990153214856027	-0.45034148173937266	-0.33087469007865794	1.5103277291818693	-0.4481066334782544	-0.29162002340391313	1.520147027070352	-0.48235445957551176	-0.2894157806368212	1.5192764782094423	-0.4309033851391622	-0.42651443629386576	1.5738305856091528	-0.6774741511922177	-0.2769838380066111	1.8702782201748702	-0.5592272595260227	-0.2934141117873133	1.708286249133666	-0.5345708166826716	-0.30028540741985127	1.5774633938306284	-0.4552195648028982	-0.26828498080724966	1.540340660773363	-0.4635054106477799	-0.2698401471217914	1.5539515545448284	-0.4958433343127238	-0.31847357521801883	1.5705165070534888	-0.45355361145792406	-0.3080794493958386	1.9790941691838912	-0.5647157646087012	-0.3067852418289317	2.0667659283993265	-0.6524705813270443	-0.3256647225795418	1.976119313947652	-0.4851996303556999	-0.2744001735346023	1.903225190227577	-0.461036517082492	-0.3135529172526598	1.8610372811532345	-0.42775796644897257	-0.2886316629145246	1.9828620179832566	-0.644409182936163	-0.3166689201048332	1.9000079663511997	-0.5736379650461614	-0.2676059876352324	1.9179046417951147	-0.6498383777778481
3	0.1	-0.292495759990168	1.8504213587807525	-0.5052433874977514	-0.29894560074631976	1.837541810593035	-0.45107441343577975	-0.4160088274708963	1.6981600530181788	-0.45278184000701815	-0.3305887409345293	1.515102587593002	-0.44886400816900734	-0.291721607871518	1.5214836733036616	-0.4777497168622728	-0.2911639101258324	1.5211924495305844	-0.42943808269543726	-0.41802640181937234	1.571448895083542	-0.6556670988467742	-0.27793428645960944	1.8655783641313384	-0.5619408604997412	-0.29454082602482895	1.7066443142866965	-0.5375069876028797	-0.30028540741985127	1.5774633938306284	-0.4552195648028982	-0.26828498080724966	1.540340660773363	-0.4635054106477799	-0.2698401471217914	1.5539515545448284	-0.4958433343127238	-0.31847357521801883	1.5705165070534888	-0.45355361145792406	-0.3080423293397935	1.9790669477504663	-0.5646797658915574	-0.30373236914114016	2.063742691932248	-0.642235600444925	-0.3256567334427125	1.9760912692960757	-0.48524807765881195	-0.2794921024189668	1.9020808826431013	-0.45982272961309556	-0.3136124169985853	1.8575043367856738	-0.4275085731026953	-0.28856369255831016	1.9828178556276275	-0.6443052933876509	-0.313636610320374	1.899344235314356	-0.5810084750911338	-0.2681163654305495	1.9087173763467005	-0.648658728288461
4	0.13333333333333333	-0.2935863048410022	1.8472414892108475	-0.5080718537083185	-0.3001897039744276	1.8357131194605703	-0.4540997679902462	-0.40508101042135997	1.697304784550755	-0.45522219827466365	-0.3303027917904006	1.5198774460041347	-0.4496213828597603	-0.29182319233912296	1.522820319536971	-0.47314497414903384	-0.29291203961484363	1.5231084208517265	-0.4279727802517123	-0.409538367344879	1.569067204557931	-0.6338600465013308	-0.2788847349126078	1.8608785080878065	-0.5646544614734598	-0.2956675402623446	1.705002379439727	-0.5404431585230879	-0.30028540741985127	1.5774633938306284	-0.4552195648028982	-0.26828498080724966	1.540340660773363	-0.4635054106477799	-0.2698401471217914	1.5539515545448284	-0.4958433343127238	-0.31847357521801883	1.5705165070534888	-0.45355361145792406	-0.30800520928374836	1.9790397263170414	-0.5646437671744137	-0.3006794964533486	2.0607194554651693	-0.6320006195628057	-0.3256487443058832	1.9760632246444993	-0.485296524961924	-0.2845840313033314	1.9009365750586256	-0.4586089421436991	-0.3136719167445107	1.8539713924181132	-0.42725917975641803	-0.28849572220209574	1.9827736932719984	-0.6442014038391387	-0.31060430053591476	1.8986805042775121	-0.5883789851361063	-0.2686267432258666	1.8995301108982863	-0.647479078799074
5	0.16666666666666666	-0.29467684969183633	1.8440616196409425	-0.5109003199188856	-0.3014338072025355	1.8338844283281055	-0.45712512254471266	-0.39415319337182364	1.696449516083331	-0.45766255654230914	-0.33001684264627196	1.5246523044152673	-0.4503787575505132	-0.2919247768067279	1.5241569657702803	-0.4685402314357949	-0.29466016910385484	1.5250243921728686	-0.42650747780798737	-0.4010503328703856	1.5666855140323201	-0.6120529941558873	-0.27983518336560614	1.8561786520442747	-0.5673680624471783	-0.29679425449986024	1.7033604445927577	-0.543379329443296	-0.30028540741985127	1.5774633938306284	-0.4552195648028982	-0.26828498080724966	1.540340660773363	-0.4635054106477799	-0.2698401471217914	1.5539515545448284	-0.4958433343127238	-0.31847357521801883	1.5705165070534888	-0.45355361145792406	-0.30796808922770325	1.9790125048836165	-0.5646077684572699	-0.2976266237655571	2.0576962189980907	-0.6217656386806865	-0.3256407551690539	1.976035179992923	-0.48534497226503603	-0.2896759601876959	1.8997922674741499	-0.4573951546743027	-0.3137314164904362	1.8504384480505525	-0.42700978641014076	-0.2884277518458813	1.9827295309163693	-0.6440975142906266	-0.3075719907514555	1.8980167732406683	-0.5957494951810788	-0.2691371210211837	1.890342845449872	-0.6462994293096869
